PathFileType	4	(X/Y/Z)	Kaydara																																																																																																																									
DataRate	CameraRate	NumFrames	NumMarkers	Units	OrigDataRate	OrigDataStartFrame	OrigNumFrames																																																																																																																					
30	30	8	41	mm	30	79	266																																																																																																																					
Frame#	Time	SALE_LFHD			SALE_RFHD			SALE_LBHD			SALE_RBHD			SALE_LFTShould			SALE_RFTShould			SALE_LRRShould			SALE_RRRShould			SALE_T10			SALE_STRN			SALE_TRUN			SALE_LSHO			SALE_LUPA			SALE_LELB			SALE_LFRM			SALE_LWRA			SALE_LWRB			SALE_LFIN			SALE_RSHO			SALE_RUPA			SALE_RELB			SALE_RFRM			SALE_RWRB			SALE_RFIN			SALE_LFWT			SALE_RFWT			SALE_LBWT			SALE_RBWT			SALE_LTHI			SALE_LKNE			SALE_RWRA			SALE_LSHN			SALE_LANK			SALE_LHEE			SALE_LTOE			SALE_RTHI			SALE_RKNE			SALE_RSHN			SALE_RANK			SALE_RHEE			SALE_RTOE		
		X1	Y1	Z1	X2	Y2	Z2	X3	Y3	Z3	X4	Y4	Z4	X5	Y5	Z5	X6	Y6	Z6	X7	Y7	Z7	X8	Y8	Z8	X9	Y9	Z9	X10	Y10	Z10	X11	Y11	Z11	X12	Y12	Z12	X13	Y13	Z13	X14	Y14	Z14	X15	Y15	Z15	X16	Y16	Z16	X17	Y17	Z17	X18	Y18	Z18	X19	Y19	Z19	X20	Y20	Z20	X21	Y21	Z21	X22	Y22	Z22	X23	Y23	Z23	X24	Y24	Z24	X25	Y25	Z25	X26	Y26	Z26	X27	Y27	Z27	X28	Y28	Z28	X29	Y29	Z29	X30	Y30	Z30	X31	Y31	Z31	X32	Y32	Z32	X33	Y33	Z33	X34	Y34	Z34	X35	Y35	Z35	X36	Y36	Z36	X37	Y37	Z37	X38	Y38	Z38	X39	Y39	Z39	X40	Y40	Z40	X41	Y41	Z41
																																																																																																																												
34	2.6	249.69791	1645.80048	-1949.31503	119.95574	1640.5275	-1949.82559	246.82402	1641.05392	-2082.57324	121.40977	1635.00534	-2076.20773	264.92081	1385.19653	-2003.90823	121.76963	1383.19504	-2002.18414	257.05835	1444.84711	-2114.6785	105.17179	1450.86761	-2103.92746	178.19307	1296.50909	-2184.79172	189.39379	1310.29358	-1958.43765	187.14527	1223.21426	-1920.13977	378.53279	1409.94049	-2071.9194	416.12911	1191.04393	-2076.93268	399.76101	1081.79886	-2095.25635	423.83942	976.27022	-2059.21295	355.04601	842.75406	-1993.72528	422.66884	832.53036	-2027.42798	415.98534	792.02644	-1977.48962	13.26229	1414.84146	-2058.49655	-25.85033	1185.90721	-2122.31857	-51.31137	1085.51392	-2075.72464	-45.88381	972.01248	-2085.71136	-60.61286	834.37149	-2036.70639	-64.76135	796.01044	-1982.1138	308.11371	975.17899	-1972.45636	29.1091	975.23911	-1991.4537	260.96741	1038.72208	-2144.07379	82.57536	1043.76793	-2155.17212	309.59173	676.10161	-2141.58234	293.2873	505.06786	-2066.86935	-10.55002	846.96243	-1986.38672	285.91618	307.09345	-2071.987	281.14063	123.81459	-2123.27316	244.4351	75.34698	-2187.603	247.82694	86.43286	-1990.05692	22.91878	722.59232	-2150.96558	39.70529	562.45537	-2050.89233	88.90352	372.98317	-2073.32275	35.54796	125.59628	-2134.05029	49.43256	77.84311	-2014.74014	76.70053	62.07796	-2206.44852
35	2.633	251.45554	1645.89386	-1948.29956	121.33496	1640.45227	-1948.62625	248.21268	1641.07468	-2081.37497	122.8298	1635.07004	-2075.03922	266.51064	1385.22583	-2003.08044	123.20609	1382.85797	-2001.37894	258.44851	1444.92203	-2113.77853	106.52851	1451.03775	-2102.88101	179.43926	1296.69693	-2183.96332	190.84103	1310.14252	-1957.66052	188.51126	1222.97546	-1919.50043	379.89399	1409.84558	-2071.0202	417.36786	1190.95871	-2076.52405	400.7766	1081.65993	-2094.90005	424.73026	976.13983	-2058.97568	355.65399	842.67441	-1993.49426	423.31215	832.34222	-2027.17545	416.66374	791.8824	-1977.32605	14.62589	1415.0174	-2057.52014	-24.49434	1186.19171	-2121.76056	-50.21978	1085.71007	-2075.354	-44.72535	972.23694	-2085.54749	-59.73564	834.66148	-2036.70853	-64.00873	796.12198	-1982.13455	309.17187	975.05234	-1972.23465	30.13418	975.38177	-1991.06689	261.90756	1038.75313	-2143.71506	83.53881	1043.95332	-2154.74823	310.28133	676.04561	-2141.32904	293.82647	505.00999	-2066.51184	-9.7236	846.9294	-1986.21735	286.11158	306.98521	-2071.78802	281.22734	123.82663	-2123.21869	244.43264	75.34623	-2187.63	247.84937	86.45892	-1990.09399	23.778	722.47612	-2150.31052	40.62318	562.48772	-2049.82864	89.19992	372.59476	-2072.14401	35.67165	125.59405	-2133.9595	49.49893	77.90379	-2014.77554	76.651	62.0667	-2206.50528
36	2.667	252.53199	1645.6929	-1946.60919	122.62836	1640.38284	-1947.38373	249.79727	1641.12015	-2079.94293	124.42677	1635.05264	-2073.70316	267.70792	1384.93591	-2001.96899	123.87821	1382.41776	-2001.3913	260.00986	1444.95758	-2112.58026	108.16167	1451.09787	-2101.60202	180.82747	1296.85471	-2182.94754	192.44268	1309.93271	-1956.74622	189.93279	1222.72629	-1918.63586	381.47648	1409.71832	-2070.03784	418.6734	1190.76355	-2075.79269	401.98463	1081.56395	-2094.33929	425.78289	975.92804	-2058.43781	356.46748	842.46704	-1993.13232	424.20982	832.09099	-2026.7952	417.49786	791.64612	-1976.9931	16.21228	1415.11536	-2056.25244	-22.795	1186.42212	-2121.15875	-48.86351	1085.9288	-2075.07797	-43.36591	972.43484	-2085.43457	-58.86021	834.90616	-2036.9516	-63.45269	796.2529	-1982.36877	310.35894	974.87221	-1971.68198	31.43529	975.3389	-1990.42862	263.01989	1038.81134	-2143.15872	84.65336	1044.00932	-2154.02603	311.05087	675.98373	-2141.00708	294.44365	504.92752	-2066.02493	-9.43101	846.90735	-1985.92651	286.43723	306.86253	-2071.53946	281.33673	123.72536	-2123.25287	244.47086	75.31157	-2187.65335	247.86207	86.46248	-1990.15915	24.72739	722.43828	-2149.48181	41.52342	562.47696	-2048.79333	90.10364	372.38667	-2071.59042	35.80742	125.6367	-2133.90991	49.57517	77.9506	-2014.823	76.60638	61.95458	-2206.53946
37	2.7	254.46133	1645.53757	-1944.9733	124.3257	1640.12482	-1945.76996	252.0829	1640.9436	-2077.46796	126.26364	1635.02823	-2072.14233	269.34607	1384.76639	-2000.70465	126.57314	1382.6326	-1998.71323	261.73208	1444.91318	-2111.22162	109.88033	1451.20941	-2100.14969	182.40078	1296.94977	-2181.69876	194.07955	1309.74762	-1955.43228	191.74416	1222.48459	-1917.55798	383.19813	1409.55765	-2068.89771	420.10685	1190.52162	-2074.77341	403.35854	1081.36887	-2093.49701	426.97693	975.66116	-2057.74811	357.62825	842.21443	-1992.5325	425.30842	831.84151	-2026.31561	418.51051	791.3044	-1976.4949	17.94601	1415.24231	-2054.81033	-20.93455	1186.67496	-2120.27679	-47.27311	1086.13632	-2074.61792	-41.85853	972.67502	-2085.1767	-57.93299	835.1474	-2036.82098	-62.95085	796.35178	-1982.49847	311.91122	974.75906	-1971.13556	32.84514	975.26321	-1989.59915	264.35837	1038.78342	-2142.3909	85.97448	1044.08875	-2153.10593	311.98582	675.91652	-2140.34698	295.04807	504.86813	-2065.29266	-8.93222	846.92078	-1985.55756	286.7135	306.63834	-2071.17142	281.41403	123.67031	-2123.26096	244.48534	75.30634	-2187.69135	247.87249	86.48613	-1990.21011	25.8178	722.45522	-2148.52463	42.56094	562.46346	-2047.63962	90.84537	372.16499	-2070.61798	35.97519	125.68522	-2133.82004	49.5926	77.9924	-2014.90143	76.6048	61.92729	-2206.61865
38	2.733	256.381	1645.33188	-1942.9483	126.35658	1639.86404	-1943.78128	254.18299	1640.93719	-2075.36469	128.30563	1634.98062	-2070.21591	269.45644	1383.76343	-1997.77039	129.35286	1382.84317	-1996.43082	263.64922	1444.86893	-2109.64127	111.85934	1451.23184	-2098.42743	184.14829	1297.08664	-2180.24551	196.0285	1309.47144	-1954.00192	193.48066	1222.17247	-1916.24283	385.10067	1409.28528	-2067.30835	421.84906	1190.23315	-2073.63403	404.90532	1081.13815	-2092.49527	428.42022	975.33516	-2056.83548	358.93063	841.88843	-1991.85532	426.51772	831.4109	-2025.51224	419.69406	790.89149	-1975.81284	19.8901	1415.28915	-2053.06534	-19.00524	1186.93283	-2119.0419	-45.69413	1086.27083	-2073.7262	-40.21816	972.79106	-2084.55322	-56.90922	835.34233	-2036.78818	-62.26416	796.41273	-1982.37808	313.47757	974.53217	-1970.15961	33.92538	975.38902	-1987.33719	265.89594	1038.66615	-2141.32385	87.5572	1044.11446	-2151.95831	313.11371	675.81367	-2139.3959	295.8078	504.81934	-2064.42139	-8.15396	846.84692	-1984.94705	286.90264	306.77258	-2070.6842	281.54451	123.64602	-2123.08075	244.54035	75.31882	-2187.7179	247.91363	86.48891	-1990.24643	27.18211	722.33841	-2147.33902	43.77152	562.49084	-2046.36658	91.41346	371.76128	-2069.3251	36.20918	125.72331	-2133.70071	49.42829	78.20391	-2015.12634	76.60735	61.89687	-2206.66702
39	2.767	258.16816	1644.89746	-1940.41397	128.3708	1639.52637	-1941.64001	256.37444	1640.84427	-2073.01529	130.49455	1634.85855	-2068.02826	271.56647	1383.43216	-1995.97076	130.25748	1382.28516	-1995.79254	265.8551	1444.97009	-2108.03482	114.02302	1451.2233	-2096.43158	186.08208	1297.08725	-2178.49411	198.18142	1309.22546	-1952.38129	195.61054	1221.88774	-1914.65179	387.34337	1409.01352	-2065.51025	423.66501	1189.97231	-2072.3378	406.63151	1080.86723	-2091.27121	430.06248	974.98596	-2055.76508	360.47001	841.56082	-1990.85297	428.00194	831.05194	-2024.63867	421.21807	790.38773	-1974.97269	22.05215	1415.3035	-2051.10519	-17.04215	1187.14149	-2117.54974	-43.95236	1086.43051	-2072.45529	-38.55858	973.0336	-2083.65143	-55.68915	835.60089	-2036.03668	-61.23728	796.39206	-1981.8515	315.23764	974.27818	-1968.69553	36.2026	975.23613	-1986.86279	267.73735	1038.48679	-2139.86069	89.43677	1044.00169	-2150.55206	314.38246	675.7225	-2138.11218	296.64579	504.70318	-2063.38745	-7.00859	846.87546	-1984.11179	287.36935	306.57309	-2070.15411	281.71467	123.60312	-2123.0188	244.568	75.34362	-2187.71866	247.88181	86.48523	-1990.24155	28.81674	722.33452	-2145.90942	45.16924	562.46315	-2044.68933	92.68695	371.52561	-2068.37128	36.46145	125.74685	-2133.55194	49.47814	78.23749	-2015.1503	76.57214	61.89656	-2206.70105
40	2.8	260.58075	1644.49432	-1937.77435	130.79691	1639.02466	-1938.95996	258.72326	1640.76569	-2070.35446	132.84352	1634.71146	-2065.39948	273.96759	1383.1311	-1993.83148	133.96345	1382.33002	-1992.57187	268.15531	1444.61075	-2105.6897	116.39289	1451.0965	-2094.25629	188.3997	1297.07916	-2176.52985	200.47667	1308.83499	-1950.30792	197.96642	1221.45447	-1912.82806	389.55441	1408.53912	-2063.24829	425.82848	1189.6376	-2070.76019	408.64262	1080.58083	-2089.83688	431.96762	974.59274	-2054.43604	362.1513	841.10771	-1989.78531	429.82674	830.63828	-2023.58322	422.79728	789.84787	-1973.87756	24.46006	1415.24948	-2048.96606	-15.0749	1187.29431	-2115.65948	-42.06356	1086.5139	-2070.61066	-37.06966	973.10188	-2081.96747	-54.15402	835.72906	-2034.89594	-59.23024	796.0997	-1980.6189	317.13449	973.94974	-1966.77521	38.0766	975.33585	-1985.54947	269.8205	1038.18199	-2138.12164	91.52328	1043.89633	-2148.87115	315.88812	675.65094	-2136.60446	297.83243	504.52358	-2062.30713	-5.2152	846.38405	-1983.20938	287.93905	306.32717	-2069.52026	281.92867	123.4717	-2122.93381	244.64214	75.37866	-2187.70844	247.89751	86.49414	-1990.31998	30.70583	722.18124	-2144.13162	46.63223	562.44373	-2042.64633	94.06036	371.13743	-2066.83716	36.79558	125.86105	-2133.41187	49.48712	78.29805	-2015.2269	76.66612	61.85139	-2206.76849
41	2.833	263.00676	1644.0155	-1934.6962	133.24387	1638.42422	-1936.14838	261.41598	1640.6131	-2067.29126	135.52116	1634.48776	-2062.5174	278.82298	1383.73245	-1992.98676	135.84805	1382.00516	-1990.69992	270.89371	1444.46533	-2103.30551	119.14878	1451.00983	-2091.86234	191.01576	1296.99203	-2174.31915	203.03621	1308.45398	-1948.09235	200.30283	1221.01234	-1910.59677	392.33994	1408.30154	-2061.11496	428.28613	1189.24828	-2068.78479	411.02398	1080.2494	-2088.02795	434.2012	974.18083	-2052.77252	364.28806	840.67337	-1988.26416	431.81713	830.14122	-2022.15652	424.89235	789.27605	-1972.60101	27.15812	1415.13977	-2046.65161	-13.43473	1187.43256	-2113.17795	-40.51195	1086.6098	-2067.55264	-36.01183	973.29704	-2079.41452	-52.25319	835.7196	-2032.64526	-55.83558	795.5793	-1978.25241	319.40498	973.70621	-1964.86755	40.18803	975.40405	-1983.34122	272.13623	1037.72972	-2136.04904	93.77536	1043.64815	-2146.91376	317.52966	675.54817	-2134.88434	298.74189	504.29783	-2060.93994	-2.0588	846.23047	-1982.0047	288.6466	306.09499	-2068.7767	282.11391	123.41851	-2122.69897	244.76355	75.38664	-2187.70309	247.84113	86.49553	-1990.27954	32.97663	722.00584	-2141.93054	48.49216	562.36855	-2039.93912	95.17177	370.46566	-2064.31366	37.16659	126.02705	-2133.27484	49.43158	78.31435	-2015.29495	76.78411	61.83452	-2206.84845
